<svg xmlns="http://www.w3.org/2000/svg" width="24" height="24" viewBox="0 0 24 24" fill="none">
  <path d="M18.8749 10.0005C18.8754 9.16316 18.7108 8.33391 18.3906 7.5602C18.0703 6.78649 17.6007 6.08349 17.0086 5.49138C16.4165 4.89928 15.7135 4.42968 14.9398 4.10945C14.1661 3.78922 13.3369 3.62464 12.4995 3.6251H12.4994C11.0221 3.62619 9.59202 4.14566 8.45844 5.09296L7.74244 5.69129L8.48073 6.26189L11.3561 8.48415L12.2479 9.17337L12.5393 8.08461C12.5875 7.90443 12.616 7.71953 12.6242 7.53318L12.6249 7.51599L12.6249 7.49878C12.6246 7.3304 12.608 7.16339 12.5759 6.99992C12.7464 7.0015 12.9169 7.01784 13.0856 7.04905C13.5395 7.13302 13.9673 7.32226 14.3348 7.60157C14.7023 7.88089 14.9991 8.24249 15.2014 8.65733C15.4038 9.07218 15.5061 9.5287 15.5 9.99023C15.4958 10.3054 15.4411 10.6179 15.338 10.9158L15.1619 11.4249L15.5881 11.7544L17.1233 12.9411L17.863 13.513L18.2607 12.6668C18.6371 11.8659 18.8748 10.9705 18.8749 10.0005ZM18.8749 10.0005L18.1249 10.0001H18.8749C18.8749 10.0002 18.8749 10.0004 18.8749 10.0005ZM12.4999 16.3751V16.3751L12.5069 16.3751C12.7773 16.3726 13.0471 16.3529 13.3148 16.3161L13.7726 16.6703C13.3531 16.7221 12.929 16.7501 12.4999 16.7501C8.00036 16.7501 4.0543 14.1306 2.05446 10.2306C2.01861 10.1591 1.99994 10.0803 1.99994 10.0003C1.99994 9.9203 2.01862 9.84142 2.05449 9.76993C2.31433 9.26274 2.62039 8.78082 2.95895 8.31378L6.20491 10.8224C6.60923 13.9486 9.25296 16.3751 12.4999 16.3751ZM19.9568 13.9836L19.2464 14.5824L19.9815 15.1506L24.1995 18.4105L23.5858 19.2001L0.800591 1.58992L1.41409 0.800161L6.28657 4.56617L6.67445 4.86596L7.1047 4.631C8.75969 3.72721 10.6147 3.25245 12.5004 3.2501C16.9998 3.2503 20.9457 5.86981 22.9454 9.76968C22.9812 9.84113 22.9999 9.91996 22.9999 9.99991C22.9999 10.0798 22.9813 10.1586 22.9455 10.23C22.2078 11.6669 21.1919 12.9428 19.9568 13.9836ZM1.31573 0.724142C1.31552 0.723981 1.31531 0.723814 1.31511 0.723651L1.31573 0.724142Z" fill="#BEBEBF" stroke="#BEBEBF" stroke-width="1.5"/>
</svg>